<svg width="200" height="51" viewBox="0 0 200 51" fill="none" xmlns="http://www.w3.org/2000/svg">
<rect width="200" height="51" rx="7" fill="#FA9359"/>
<path d="M26.3081 32.5H29.0758V27.8594H31.0957L33.5758 32.5H36.6312L33.8507 27.4119C35.34 26.7727 36.1646 25.4751 36.1646 23.6854C36.1646 21.0838 34.4451 19.4091 31.4728 19.4091H26.3081V32.5ZM29.0758 25.6349V21.6719H30.9423C32.5403 21.6719 33.3137 22.3814 33.3137 23.6854C33.3137 24.983 32.5403 25.6349 30.9551 25.6349H29.0758ZM39.7103 32.5H48.5569V30.218H42.4781V27.0923H48.0775V24.8104H42.4781V21.6911H48.5313V19.4091H39.7103V32.5ZM54.5779 32.5L55.5495 29.5149H60.2733L61.2448 32.5H64.2108L59.698 19.4091H56.1312L51.612 32.5H54.5779ZM56.2527 27.3544L57.8635 22.4006H57.9657L59.5765 27.3544H56.2527ZM72.0168 32.5C76.0054 32.5 78.4216 30.0327 78.4216 25.9418C78.4216 21.8636 76.0054 19.4091 72.0551 19.4091H67.3762V32.5H72.0168ZM70.1439 30.1286V21.7805H71.9081C74.3627 21.7805 75.6602 23.0334 75.6602 25.9418C75.6602 28.8629 74.3627 30.1286 71.9017 30.1286H70.1439ZM87.8174 19.4091V32.5H90.502V23.9474H90.6107L93.9985 32.4361H95.8266L99.2144 23.9794H99.3231V32.5H102.008V19.4091H98.5944L94.9893 28.2045H94.8358L91.2307 19.4091H87.8174ZM117.908 25.9545C117.908 21.6719 115.249 19.2301 111.778 19.2301C108.288 19.2301 105.648 21.6719 105.648 25.9545C105.648 30.218 108.288 32.679 111.778 32.679C115.249 32.679 117.908 30.2372 117.908 25.9545ZM115.102 25.9545C115.102 28.7287 113.785 30.2308 111.778 30.2308C109.764 30.2308 108.454 28.7287 108.454 25.9545C108.454 23.1804 109.764 21.6783 111.778 21.6783C113.785 21.6783 115.102 23.1804 115.102 25.9545ZM121.548 32.5H124.315V27.8594H126.335L128.815 32.5H131.871L129.09 27.4119C130.58 26.7727 131.404 25.4751 131.404 23.6854C131.404 21.0838 129.685 19.4091 126.712 19.4091H121.548V32.5ZM124.315 25.6349V21.6719H126.182C127.78 21.6719 128.553 22.3814 128.553 23.6854C128.553 24.983 127.78 25.6349 126.195 25.6349H124.315ZM134.95 32.5H143.797V30.218H137.718V27.0923H143.317V24.8104H137.718V21.6911H143.771V19.4091H134.95V32.5Z" fill="white"/>
<g clip-path="url(#clip0)">
<path d="M170.197 33.3325L177.498 25.6672C177.656 25.5006 177.656 25.3339 177.498 25.3339L170.197 17.502C170.038 17.502 169.88 17.502 169.721 17.502L167.817 19.6682C167.658 19.8349 167.658 20.0015 167.817 20.0015L170.991 23.3343C171.149 23.5009 170.991 23.8342 170.832 23.8342H157.818C157.66 23.8342 157.501 23.8342 157.501 24.0008V26.8337C157.501 27.0003 157.66 27.1669 157.818 27.1669H170.832C170.991 27.1669 171.149 27.5002 170.991 27.6669L167.817 30.9996C167.658 31.1662 167.658 31.3329 167.817 31.3329L169.721 33.3325C169.88 33.4992 170.038 33.4992 170.197 33.3325Z" fill="white"/>
</g>
<defs>
<clipPath id="clip0">
<rect width="19.9965" height="15.9972" fill="white" transform="translate(157.502 17.502)"/>
</clipPath>
</defs>
</svg>
