<svg width="41" height="41" viewBox="0 0 41 41" fill="none" xmlns="http://www.w3.org/2000/svg">
<circle cx="20.1508" cy="20.1508" r="20.1508" fill="#FA9359"/>
<g clip-path="url(#clip0)">
<path d="M28.2002 14.2L27.0002 13L21.9002 18.2V14.4H20.2002V21H26.8002V19.3H23.0002L28.2002 14.2Z" fill="#0067B2"/>
<path d="M25.1 24.2992H21.9C21.4 24.2992 21.1 24.6992 21.1 25.0992V25.8992C17.8 25.8992 15.4 23.3992 15.4 20.1992H16.2C16.7 20.1992 17 19.7992 17 19.3992V15.9992C17 15.4992 16.6 15.1992 16.2 15.1992H12.8C12.4 15.1992 12 15.5992 12 15.9992V20.0992C12 25.0992 16 29.0992 21 29.0992H25.1C25.6 29.0992 25.9 28.6992 25.9 28.2992V24.9992C26 24.5992 25.6 24.2992 25.1 24.2992Z" fill="#0067B2"/>
</g>
<defs>
<clipPath id="clip0">
<rect width="16.2" height="16.2" fill="white" transform="translate(12 13)"/>
</clipPath>
</defs>
</svg>
