<svg width="289" height="498" viewBox="0 0 289 498" fill="none" xmlns="http://www.w3.org/2000/svg">
<g opacity="0.25">
<path d="M34.1827 302.345H0L1.62772 297.469C4.88322 288.528 17.9052 275.524 20.3468 273.086C32.555 256.018 62.6683 243.826 63.4822 243.826L66.7376 251.141C66.7376 251.141 37.4382 263.333 26.8579 277.962L26.0439 278.775C22.7884 281.213 16.2775 288.528 12.2081 295.03H26.8579V280.401L28.4856 279.588C35.8105 273.899 61.0406 255.205 71.6209 256.83L69.9931 264.145C65.9237 263.333 48.8325 273.086 34.9966 283.652L34.1827 302.345Z" fill="#4A8DC1"/>
<path d="M127.785 382.811L118.832 369.807L123.715 368.181C124.529 368.181 132.668 365.743 138.365 368.181L135.11 375.496C134.296 374.683 132.668 374.683 131.854 374.683L134.296 378.747L127.785 382.811Z" fill="#4A8DC1"/>
<path d="M119.642 289.345C115.573 289.345 112.318 288.532 110.69 288.532H92.7846C80.5765 288.532 75.6934 275.528 75.6934 275.528V273.902L74.8794 234.077C74.0656 226.762 75.6933 221.073 78.9488 217.822C83.0182 213.758 87.9014 213.758 88.7153 213.758H121.27C111.504 167.43 117.201 99.1576 118.015 86.1533C115.573 83.715 112.318 81.2767 108.248 78.8384C104.179 76.4001 100.923 73.9618 98.4817 71.5235C92.7846 66.6469 87.9014 62.5831 83.0182 58.5192C81.3904 56.8937 78.1349 56.0809 74.8794 56.0809C69.9962 55.2682 65.9268 52.8299 64.2991 47.9533C62.6713 43.8894 61.8574 39.8256 61.8574 35.7618C61.8574 30.0724 65.113 26.8213 67.5546 24.383L69.1824 22.7575C69.9962 21.9447 70.8101 21.1319 70.8101 21.1319C74.8794 16.2553 80.5765 14.6298 86.2736 16.2553C96.854 20.3192 107.434 21.1319 119.642 21.9447C122.898 21.9447 126.153 22.7575 129.409 22.7575C133.478 22.7575 136.734 23.5702 140.803 24.383L152.197 0L156.267 5.68937C156.267 6.50214 164.406 17.0681 161.15 31.6979C167.661 39.0128 170.103 45.515 176.614 65.0214C180.683 77.2129 186.38 93.4682 195.333 118.664C205.913 148.736 229.515 173.119 260.443 188.562C275.092 195.877 290.556 199.941 306.833 204.005L308.461 204.817C332.063 211.319 360.549 223.511 376.827 233.264L371.943 240.579C355.666 231.639 329.622 218.634 306.833 212.132L305.206 211.319C288.114 207.256 272.651 202.379 257.187 195.064C224.632 178.809 200.216 152.8 188.822 121.102C179.869 95.9065 174.172 79.6512 170.103 67.4597C163.592 47.1405 161.964 42.2639 155.453 35.7618L154.639 34.949L152.197 33.3235L153.011 31.6979C154.639 26.0085 153.825 21.1319 153.011 17.0681L145.686 33.3235H142.431C137.548 32.5107 133.478 31.6979 129.409 31.6979C126.153 31.6979 122.898 30.8852 119.642 30.8852C108.248 30.0724 96.0401 29.2596 84.6459 24.383C82.2043 23.5702 79.7626 24.383 78.1349 26.8213C77.321 27.6341 76.5072 29.2596 74.8794 30.0724L73.2517 31.6979C70.8101 34.1362 69.9962 34.949 69.9962 37.3873C69.9962 40.6384 69.9963 43.0767 71.624 46.3277C72.4379 47.9533 73.2517 48.766 76.5072 49.5788C81.3904 50.3916 85.4598 51.2043 87.9015 53.6426C93.5986 57.7065 98.4818 61.7703 104.179 66.6469C106.621 68.2724 109.876 70.7107 113.131 73.149C117.201 76.4001 122.084 79.6512 125.34 82.0895L126.967 83.715V85.3405C126.967 86.1533 118.829 168.243 131.037 217.009L132.665 221.885L90.343 221.073C90.343 221.073 87.9014 221.073 86.2736 222.698C84.6459 224.324 83.832 228.388 84.6459 233.264L85.4598 273.09C86.2737 274.715 89.5292 281.217 95.2263 281.217H114.759C118.015 282.03 126.153 282.843 131.851 280.405L125.34 272.277C122.898 273.09 117.201 273.903 114.759 278.779L113.945 281.217H95.2263L94.4124 277.966C93.5985 275.528 92.7846 273.09 92.7846 271.464C91.9708 271.464 91.1569 270.651 90.343 269.839C89.5291 269.026 87.0876 266.588 89.5292 252.771L90.343 250.332L92.7846 249.52C100.923 247.081 126.967 239.766 134.292 243.017C135.106 243.017 137.548 243.83 139.989 244.643C152.197 247.081 174.986 250.332 199.402 271.464L194.519 277.154C171.73 257.647 149.756 253.583 138.362 251.958C135.106 251.145 132.664 251.145 131.037 250.332C127.781 249.52 111.504 252.771 96.854 256.834C96.0401 260.085 96.0402 262.524 96.0402 264.149C97.6679 264.962 99.2956 267.4 100.923 273.09H108.248C113.945 264.962 125.34 264.149 126.153 264.149H127.781L141.617 281.217L139.175 283.656C133.478 287.72 126.153 289.345 119.642 289.345Z" fill="#4A8DC1"/>
<path d="M219.751 148.736L218.123 146.298C214.054 138.983 209.984 131.668 205.915 123.54C199.404 109.723 194.521 95.0935 189.637 81.2765C187.196 73.1488 183.94 65.0212 180.685 56.8935V56.0807C178.243 49.5786 175.801 43.8892 172.546 37.3871L166.035 43.8892L160.338 38.1999L174.174 24.3828L176.615 28.4466C181.499 35.7616 184.754 44.702 188.01 52.8297V53.6424C191.265 61.7701 193.707 69.8978 196.962 78.0254C201.845 91.8425 206.729 105.66 213.24 119.477C217.309 127.604 221.378 134.919 225.448 141.421L227.076 143.86L219.751 148.736Z" fill="#4A8DC1"/>
<path d="M244.978 407.195C244.164 407.195 244.164 406.382 243.35 406.382C237.653 403.944 236.025 399.88 236.025 397.442C236.025 395.004 236.025 390.94 240.095 386.876C242.536 384.438 245.792 381.999 248.233 380.374C249.047 379.561 250.675 378.748 251.489 377.936L256.372 384.438C255.558 385.25 253.93 386.063 253.117 386.876C250.675 388.502 248.233 390.94 245.792 392.565C244.164 394.191 243.35 395.004 243.35 395.816C243.35 396.629 244.978 397.442 246.606 399.067C247.42 399.067 247.42 399.88 248.233 399.88L244.978 407.195Z" fill="#4A8DC1"/>
<path d="M341.015 497.412C340.201 497.412 339.387 497.412 337.759 496.599C329.62 493.348 323.923 488.471 319.854 481.969C318.226 478.718 317.412 473.841 319.854 468.965C314.971 467.339 310.901 464.088 307.646 458.399C307.646 458.399 306.832 457.586 306.018 456.773L305.204 455.96C292.996 446.207 279.16 434.828 262.883 427.514C261.255 426.701 259.627 425.888 257.999 425.075L257.186 424.262C251.488 420.199 244.978 416.135 249.861 403.131C254.744 389.314 259.627 377.122 264.511 364.931C266.138 361.679 264.51 360.054 263.697 359.241C262.069 358.428 260.441 357.616 257.999 356.803L256.372 355.99C242.536 351.113 231.956 342.173 226.258 329.169C220.561 316.165 221.375 300.722 222.189 286.905C217.306 290.969 214.864 299.096 214.05 302.347C211.609 311.288 214.05 320.228 216.492 329.982C218.934 339.735 221.375 350.301 218.934 360.867C217.306 368.182 212.423 373.871 208.353 379.56C206.725 381.999 205.098 383.624 203.47 386.062C199.401 391.752 199.401 398.254 198.587 404.756C198.587 408.007 198.587 410.445 197.773 413.697L196.145 423.45L190.448 415.322C187.192 411.258 184.751 405.569 181.495 397.441C178.24 387.688 177.426 379.56 179.868 373.058C180.681 370.62 181.495 368.182 183.123 366.556C183.937 364.931 184.751 364.118 184.751 362.492C188.006 354.365 184.751 347.05 181.495 338.109C179.868 334.858 179.054 331.607 177.426 328.356C171.729 308.85 178.24 284.467 193.704 273.901C201.842 268.211 210.795 268.211 219.747 268.211C227.886 268.211 235.211 268.211 240.094 263.335C261.255 246.267 288.927 239.764 319.04 246.267C333.69 249.518 349.153 251.956 366.245 254.394C372.756 255.207 378.453 254.394 383.336 251.956C387.405 247.892 415.891 221.884 476.118 217.82C478.559 204.003 490.767 198.313 491.581 198.313L496.464 195.875L498.092 217.82H511.928L519.253 221.071L539.6 218.632C540.414 218.632 540.414 218.632 541.227 218.632C543.669 217.82 546.924 217.007 550.18 218.632C554.249 220.258 555.063 225.947 555.063 228.386L547.738 230.824C547.738 229.198 546.924 225.947 546.111 225.135C545.297 225.135 543.669 225.135 542.855 225.947C542.041 225.947 541.227 225.947 540.414 225.947L517.625 229.198L510.3 225.135H491.581L489.953 208.067C486.698 210.505 484.256 215.381 483.442 221.071V224.322H480.187C417.519 227.573 389.033 256.02 389.033 256.833L388.219 257.645C381.708 260.896 374.383 262.522 365.431 260.896C348.339 258.458 332.062 256.02 317.412 252.769C289.741 247.079 263.697 252.769 244.977 268.211C237.653 274.713 228.7 274.713 219.747 274.713C211.609 274.713 204.284 274.713 198.587 279.59C186.379 288.53 179.868 309.662 185.565 325.918C186.379 329.169 188.006 331.607 188.82 334.858C192.89 343.799 196.959 353.552 192.076 364.931C191.262 366.556 190.448 368.182 189.634 369.807C188.82 371.433 188.006 373.871 187.193 375.496C185.565 380.373 186.379 386.875 188.82 395.003C189.634 396.628 190.448 398.254 190.448 399.879C191.262 394.19 192.076 387.688 196.145 381.999C197.773 379.56 199.401 377.122 201.028 374.684C205.098 369.807 208.353 364.931 209.981 359.241C212.423 350.301 209.981 341.36 207.539 331.607C205.098 321.854 202.656 311.288 205.098 299.909C206.725 293.407 212.423 277.152 225.445 276.339H230.328L229.514 285.279C228.7 299.096 227.072 312.913 232.769 324.292C237.653 334.858 247.419 342.986 257.999 347.05L259.627 347.862C262.069 348.675 265.324 349.488 267.766 351.926C271.835 355.177 273.463 360.867 271.022 366.556C266.138 378.748 261.255 390.939 256.372 403.943C253.93 410.445 255.558 412.071 260.441 416.135L261.255 416.948C262.069 417.76 262.883 417.76 264.511 418.573C281.602 425.888 296.252 438.08 309.274 447.833L310.087 448.646C310.901 449.458 312.529 450.271 313.343 451.897C315.785 456.773 319.854 459.211 323.923 460.024C325.551 460.024 326.365 460.837 327.179 461.65C327.179 461.65 327.179 461.65 327.993 461.65L331.248 464.088L328.806 468.152C328.806 468.965 327.993 468.965 327.993 469.777C325.551 472.216 325.551 474.654 326.365 476.28C328.806 481.156 332.876 484.407 339.387 486.846C342.642 473.841 340.201 464.088 332.876 455.96C308.46 428.326 279.16 408.82 279.16 408.82L275.091 406.382L285.671 397.441C288.927 394.19 291.368 390.939 294.624 387.688C300.321 380.373 306.018 373.058 314.971 368.994C320.668 366.556 324.737 361.679 327.179 355.177L328.806 351.113L336.131 354.365C338.573 355.177 341.015 355.99 342.642 357.616C369.5 369.807 397.172 374.684 424.844 373.058C425.657 373.058 426.471 373.058 427.285 373.058C437.052 372.245 440.307 373.058 443.563 382.811C445.19 386.875 446.004 390.939 446.004 395.816C446.004 406.382 446.004 416.948 445.19 428.326C445.19 433.203 444.376 438.892 442.749 443.769C439.493 456.773 427.285 467.339 413.449 468.965C409.38 469.777 405.311 470.59 400.427 472.216C398.8 473.029 396.358 473.029 393.916 472.216C391.475 470.59 390.661 468.152 390.661 467.339C389.033 462.463 383.336 458.399 378.453 459.211C375.197 460.024 371.942 461.65 368.686 463.275C368.686 463.275 367.872 463.275 367.872 464.088C368.686 464.901 369.5 464.901 369.5 465.714L373.569 468.965C376.011 470.59 378.453 473.029 380.894 474.654C382.522 475.467 384.15 476.28 386.592 477.092C388.219 477.905 389.847 477.905 391.475 477.905C393.916 478.718 396.358 478.718 398.8 480.343C403.683 481.969 408.566 481.969 413.449 478.718C423.216 473.029 432.982 467.339 441.935 463.275C444.377 461.65 447.632 460.837 448.446 458.399L456.585 459.211C454.143 464.088 448.446 468.152 445.19 469.777C436.238 473.841 426.471 479.531 417.519 485.22C411.008 489.284 403.683 490.097 396.358 487.658C394.73 486.846 392.289 486.033 389.847 486.033C388.219 485.22 386.592 485.22 384.964 484.407C382.522 483.594 380.08 482.782 377.639 481.156C375.197 479.531 371.942 477.092 369.5 475.467L365.431 472.216C363.803 471.403 362.989 470.59 361.361 468.965C359.734 467.339 358.92 464.901 358.92 463.275C358.92 461.65 360.547 459.211 362.989 458.399C363.803 457.586 364.617 457.586 365.431 456.773C369.5 455.148 372.756 452.709 376.825 451.897C384.964 450.271 395.544 456.773 397.986 464.901C402.869 463.275 407.752 461.65 412.635 460.837C423.216 459.211 432.982 451.084 435.424 441.331C436.238 437.267 437.052 432.39 437.052 427.514C437.866 416.948 437.866 406.382 437.866 395.816C437.866 392.565 437.052 388.501 436.238 385.25C434.61 379.56 434.61 379.56 428.099 380.373C427.285 380.373 425.657 380.373 424.844 380.373C395.544 381.999 367.058 377.122 338.573 364.931C336.131 364.118 334.504 363.305 332.062 362.492C328.807 368.994 323.923 373.871 318.226 377.122C310.901 381.186 306.018 386.875 300.321 394.19C297.065 398.254 294.624 401.505 290.554 405.569L287.299 408.007C296.252 414.509 318.226 430.765 338.573 453.522C347.526 463.275 349.967 476.28 346.712 491.722C346.712 492.535 345.898 495.786 342.642 497.412C342.642 497.412 341.828 497.412 341.015 497.412Z" fill="#4A8DC1"/>
<path d="M231.136 489.288H221.37H220.556C218.114 488.476 217.3 486.85 216.486 485.225C216.486 483.599 215.673 481.974 217.3 479.535L218.114 478.723C218.928 477.097 219.742 475.471 222.184 473.846C223.811 472.22 225.439 470.595 225.439 468.157C225.439 467.344 226.253 466.531 226.253 464.905C226.253 464.093 227.067 463.28 227.067 462.467C228.695 454.339 228.695 447.837 225.439 441.335L224.625 438.897C222.997 436.459 222.184 434.02 221.37 431.582C220.556 429.144 219.742 427.518 219.742 425.08C218.928 425.893 217.3 425.893 216.486 426.705C210.789 428.331 205.906 430.769 199.395 429.956C198.581 430.769 198.581 431.582 196.954 434.02C195.326 437.271 194.512 440.522 193.698 443.774C192.07 447.837 191.256 452.714 188.001 456.778C185.559 460.842 183.932 464.093 185.559 468.157C186.373 469.782 186.373 473.033 183.118 475.471C183.118 477.097 183.118 478.723 183.118 479.535C182.304 481.974 179.862 482.786 178.234 483.599C176.607 484.412 175.793 484.412 174.165 484.412L171.723 485.225H168.468H167.654C166.84 485.225 166.026 485.225 165.213 484.412C161.957 483.599 161.143 481.974 160.329 481.161C159.515 480.348 159.515 477.91 161.143 475.471C161.143 474.659 161.957 474.659 161.957 473.846C163.585 471.408 164.399 468.969 166.84 467.344C170.096 464.905 171.723 461.654 172.537 456.778V454.339C173.351 448.65 174.165 442.148 177.421 436.459C178.234 434.833 178.234 434.02 175.793 430.769C174.979 429.956 174.165 429.144 174.165 428.331C169.282 432.395 160.329 436.459 156.26 437.271C153.818 437.271 151.377 438.897 148.935 439.71H148.121C148.121 440.522 148.935 441.335 149.749 442.148C150.563 442.961 150.563 443.774 151.377 444.586C151.377 445.399 152.19 445.399 152.19 445.399C153.818 444.586 155.446 444.586 156.26 444.586C162.771 445.399 166.026 449.463 167.654 456.778C167.654 458.403 168.468 461.654 166.026 464.093C163.585 466.531 160.329 465.718 158.701 464.905C155.446 464.093 151.377 463.28 148.121 463.28C142.424 463.28 139.169 461.654 138.355 455.152C137.541 452.714 136.727 450.276 135.099 447.837C132.657 445.399 131.03 442.961 130.216 439.71C126.96 434.02 129.402 429.956 131.03 428.331C132.657 426.705 136.727 423.454 141.61 420.203C143.238 418.578 145.68 417.765 146.493 416.952L147.307 416.139C151.377 412.888 153.818 411.263 153.818 409.637C153.004 408.825 153.004 407.199 152.19 406.386C149.749 400.697 147.307 394.195 143.238 389.318C139.168 393.382 136.727 399.884 135.099 404.761C134.285 408.012 133.471 408.825 132.658 410.45C131.844 412.076 130.216 414.514 128.588 421.016C128.588 421.829 128.588 421.829 128.588 423.454C128.588 424.267 128.588 425.893 128.588 426.705C127.774 434.02 119.636 438.084 111.497 438.084C111.497 438.084 111.497 438.084 110.683 438.084C105.8 438.084 103.358 435.646 101.73 434.02L100.916 432.395C100.916 431.582 100.103 431.582 100.103 431.582C96.0333 428.331 95.2193 424.267 96.8471 419.391C100.103 412.076 100.103 404.761 100.916 396.633C100.916 394.195 101.73 391.756 101.73 390.131C101.73 388.505 102.544 386.067 102.544 384.442L87.8945 382.003L90.3361 377.127C90.3361 376.314 96.0332 368.186 104.986 364.935C105.8 356.807 109.869 332.424 127.774 317.795C139.982 308.041 153.818 304.79 172.537 308.041V316.169C156.26 312.918 142.424 316.169 132.658 323.484C113.938 338.114 112.311 367.373 112.311 367.373V370.624L109.055 371.437C105.8 372.25 103.358 373.876 100.916 375.501L110.683 377.127L109.869 381.19C109.055 384.442 109.055 387.693 108.241 390.131C108.241 392.569 107.427 394.195 107.427 396.633C106.614 404.761 105.8 412.888 102.544 421.829C101.73 423.454 102.544 424.267 103.358 425.08C104.172 425.893 104.986 426.705 105.8 427.518L106.614 428.331C108.241 429.956 108.241 429.956 109.869 429.956C113.938 429.956 118.822 428.331 119.636 425.893C119.636 425.08 119.636 425.08 119.636 424.267C119.636 422.642 119.636 421.016 120.449 419.391C122.891 412.076 124.519 409.637 125.333 407.199C126.147 405.573 126.146 404.761 126.96 402.322C129.402 395.008 132.658 386.067 140.796 380.378L144.052 378.752L146.493 381.19C152.191 387.693 155.446 395.82 158.701 403.135C159.515 404.761 160.329 406.386 161.143 408.012C162.771 412.888 157.888 416.952 151.377 422.642L150.563 423.454C149.749 424.267 147.307 425.893 145.679 427.518C142.424 429.956 137.541 433.208 135.913 434.833C135.913 434.833 135.099 435.646 135.913 438.084C136.727 439.71 138.355 442.148 139.982 444.586L140.796 445.399C140.796 444.586 139.982 444.586 139.982 443.774C139.169 442.148 139.169 439.71 139.982 438.084C140.796 436.459 142.424 434.833 144.052 434.02H144.866C147.307 432.395 150.563 431.582 154.632 430.769C158.701 429.956 168.468 425.08 170.91 421.829C171.723 421.016 172.537 420.203 172.537 420.203L177.421 416.952L178.234 422.642C178.234 424.267 179.862 425.893 181.49 428.331C183.932 431.582 187.187 436.459 183.932 442.961C181.49 447.025 180.676 451.901 179.862 456.778C179.862 456.778 179.862 455.965 180.676 455.965C183.118 452.714 183.932 448.65 185.559 444.586C186.373 441.335 188.001 438.084 189.629 434.02C192.07 429.144 194.512 425.893 196.954 425.08C198.581 425.08 199.395 425.08 200.209 425.08C205.092 425.893 209.162 424.267 214.045 422.642C215.673 421.829 218.114 421.016 219.742 421.016L225.439 419.391L226.253 423.454C226.253 424.267 227.067 425.893 227.067 426.705C227.881 429.144 227.881 430.769 228.695 433.208C229.508 435.646 230.322 437.271 231.95 439.71L232.764 442.148C236.019 447.837 236.833 453.527 236.833 460.029C237.647 458.403 238.461 456.778 239.275 455.965C240.089 454.34 240.089 453.527 239.275 452.714C235.206 447.025 234.392 440.522 236.833 433.208C238.461 429.144 238.461 428.331 240.903 425.893L245.786 421.016L248.228 425.893C252.297 433.208 254.739 434.833 262.063 435.646C266.947 436.459 267.76 439.71 267.76 441.335C267.76 442.148 268.574 442.961 268.574 443.774C269.388 447.025 270.202 449.463 267.76 454.339C266.133 458.403 266.133 459.216 267.76 460.842L268.574 457.591C268.574 456.778 272.644 447.025 272.644 446.212L278.341 449.463C278.341 451.088 277.527 454.34 276.713 455.152C279.969 455.965 280.783 459.216 282.41 462.467C283.224 464.093 283.224 465.718 283.224 467.344L284.852 474.659H279.969C274.271 474.659 269.388 473.033 266.133 469.782C257.994 463.28 257.18 460.842 260.436 451.088C261.25 447.837 261.25 447.837 260.436 445.399C260.436 444.586 259.622 443.774 259.622 442.961C252.297 442.148 247.414 439.71 243.344 434.02V434.833C241.717 440.522 242.53 444.586 244.972 447.837C247.414 451.901 247.414 455.965 244.972 460.029C242.53 463.28 240.903 465.718 240.903 468.969C240.903 470.595 240.903 473.033 240.903 474.659C240.903 476.284 241.717 479.535 238.461 481.974C239.275 483.599 239.275 486.037 238.461 487.663C236.833 490.101 234.392 490.914 231.95 491.727L231.136 489.288ZM226.253 481.161H229.508H230.322H231.136V480.348C230.322 477.91 231.136 474.659 233.578 473.033C233.578 473.033 233.578 473.033 233.578 472.22C233.578 471.408 233.578 470.595 233.578 470.595C232.764 474.659 230.322 477.097 227.067 480.348L226.253 481.161ZM168.468 478.723H170.096H170.91C171.723 478.723 172.537 478.723 173.351 477.91C172.537 475.471 174.165 473.033 175.793 471.408C175.793 470.595 174.979 469.782 174.979 468.969C173.351 471.408 171.723 473.033 170.096 474.659C169.282 475.471 168.468 477.097 167.654 478.723C167.654 478.723 167.654 478.723 168.468 478.723ZM270.202 459.216C271.016 459.216 271.016 460.029 271.83 460.029C272.644 460.842 274.271 461.654 275.899 462.467C275.899 461.654 275.899 461.654 275.085 460.842C274.272 459.216 274.272 458.403 274.272 458.403C274.272 458.403 273.458 458.403 272.644 458.403L270.202 459.216ZM145.679 456.778C145.679 456.778 146.493 456.778 148.121 456.778C152.19 456.778 156.26 457.591 159.515 458.403C158.701 454.339 157.074 453.527 155.446 453.527C155.446 453.527 155.446 453.527 154.632 453.527C152.191 454.34 147.307 455.152 144.052 449.463C144.052 448.65 143.238 448.65 142.424 447.837C142.424 447.837 142.424 447.837 142.424 447.025C144.052 449.463 144.866 452.714 145.679 455.152C144.866 455.965 144.866 456.778 145.679 456.778Z" fill="#4A8DC1"/>
</g>
</svg>
