<svg width="419" height="459" viewBox="0 0 419 459" fill="none" xmlns="http://www.w3.org/2000/svg">
<g opacity="0.25">
<path d="M113.623 207.539L106.12 210.536C106.12 136.361 146.634 116.131 148.135 115.382L149.636 114.633L163.891 122.875L160.139 128.868L149.636 122.875C146.634 125.122 139.132 129.618 132.379 140.107C124.126 152.095 113.623 170.826 113.623 207.539Z" fill="#4A8DC1"/>
<path d="M377.713 202.296L370.961 199.299L376.212 188.06C370.961 188.809 363.458 190.308 359.706 194.803L354.455 189.559C363.458 179.818 382.215 179.818 382.965 179.818H388.217L377.713 202.296Z" fill="#4A8DC1"/>
<path d="M286.189 358.89L286.939 353.645C287.689 342.406 293.692 326.672 293.692 325.923L295.942 320.678L306.446 331.168L312.448 325.174L304.946 295.953C301.194 295.953 295.192 297.451 290.691 301.947C281.687 310.938 263.681 307.192 262.931 307.192L264.431 300.448C268.933 301.198 280.937 301.947 286.189 297.451C295.192 289.21 307.947 289.21 308.697 289.21H311.698L321.451 328.171L307.196 341.657L300.444 334.165C298.943 337.911 297.443 343.905 296.693 349.149L308.697 345.403L325.203 333.415C328.204 318.43 331.205 282.467 318.45 272.726L322.952 266.732C342.459 281.717 331.955 334.165 331.955 336.412V337.911L312.448 352.146L286.189 358.89Z" fill="#4A8DC1"/>
<path d="M333.448 380.618L331.948 378.371C331.948 377.621 325.195 368.631 332.698 351.398L334.199 348.401L350.704 352.147L363.459 347.652C364.209 340.908 364.959 327.422 363.459 322.177C361.208 313.186 344.702 310.189 338.7 309.44L339.45 301.948C340.951 301.948 367.21 303.446 370.961 319.93C373.212 328.921 370.961 349.899 370.961 350.649V352.896L352.205 358.89L340.201 355.893C337.95 362.637 337.95 367.132 338.7 370.129L352.205 363.386L372.462 358.141C374.713 353.646 382.966 335.664 379.214 304.195L386.717 300.449C391.969 340.159 378.464 361.887 378.464 363.386L377.714 364.884L354.456 370.129L333.448 380.618Z" fill="#4A8DC1"/>
<path d="M241.913 343.156L241.163 335.664C272.674 331.917 288.43 313.936 288.43 313.936L293.682 318.431C292.932 319.18 275.675 338.661 241.913 343.156Z" fill="#4A8DC1"/>
<path d="M-131.708 266.731C-135.459 266.731 -138.46 265.982 -139.961 265.982H-156.466C-167.72 265.982 -172.222 253.994 -172.222 253.994V252.496L-172.972 215.783C-173.723 209.04 -172.222 203.795 -169.221 200.798C-165.47 197.052 -160.968 197.052 -160.218 197.052H-130.207C-139.21 154.345 -133.958 91.408 -133.208 79.42C-135.459 77.1723 -138.46 74.9246 -142.211 72.6768C-145.963 70.4291 -148.964 68.1814 -151.215 65.9336C-156.466 61.4381 -160.968 57.6919 -165.47 53.9457C-166.97 52.4472 -169.971 51.6979 -172.972 51.6979C-177.474 50.9487 -181.225 48.701 -182.726 44.2055C-184.226 40.4593 -184.977 36.713 -184.977 32.9668C-184.977 27.7221 -181.975 24.7251 -179.725 22.4774L-178.224 20.9789C-177.474 20.2296 -176.724 19.4804 -176.724 19.4804C-172.972 14.9849 -167.72 13.4864 -162.469 14.9849C-152.715 18.7311 -142.962 19.4804 -131.708 20.2296C-128.707 20.2296 -125.706 20.9789 -122.705 20.9789C-118.953 20.9789 -115.952 21.7281 -112.201 22.4774L-101.697 0L-97.9457 5.24472C-97.9457 5.99397 -90.443 15.7342 -93.4441 29.2206C-87.442 35.9638 -85.1912 41.9578 -79.1891 59.9397C-75.4378 71.1783 -70.1859 86.1633 -61.933 109.39C-52.1795 137.112 -30.4218 159.589 -1.91173 173.825C11.593 180.568 25.8481 184.314 40.8534 188.061L42.3539 188.81C64.1116 194.804 90.3709 206.043 105.376 215.034L100.875 221.777C85.8693 213.535 61.8608 201.547 40.8534 195.553L39.3529 194.804C23.5973 191.058 9.34219 186.562 -4.91286 179.819C-34.9235 164.834 -57.4314 140.858 -67.9351 111.638C-76.188 88.411 -81.4399 73.4261 -85.1912 62.1874C-91.1934 43.4562 -92.6939 38.9608 -98.696 32.9668L-99.4462 32.2176L-101.697 30.7191L-100.947 29.2206C-99.4462 23.9759 -100.196 19.4804 -100.947 15.7342L-107.699 30.7191H-110.7C-115.202 29.9698 -118.953 29.2206 -122.705 29.2206C-125.706 29.2206 -128.707 28.4713 -131.708 28.4713C-142.211 27.7221 -153.465 26.9728 -163.969 22.4774C-166.22 21.7281 -168.471 22.4774 -169.971 24.7251C-170.722 25.4744 -171.472 26.9728 -172.972 27.7221L-174.473 29.2206C-176.724 31.4683 -177.474 32.2176 -177.474 34.4653C-177.474 37.4623 -177.474 39.71 -175.973 42.707C-175.223 44.2055 -174.473 44.9547 -171.472 45.704C-166.97 46.4532 -163.219 47.2025 -160.968 49.4502C-155.716 53.1964 -151.215 56.9427 -145.963 61.4381C-143.712 62.9366 -140.711 65.1844 -137.71 67.4321C-133.958 70.4291 -129.457 73.4261 -126.456 75.6738L-124.955 77.1723V78.6708C-124.955 79.42 -132.458 155.094 -121.204 200.049L-119.703 204.544L-158.717 203.795C-158.717 203.795 -160.968 203.795 -162.469 205.293C-163.969 206.792 -164.719 210.538 -163.969 215.034L-163.219 251.747C-162.469 253.245 -159.467 259.239 -154.216 259.239H-136.209C-133.208 259.988 -125.706 260.737 -120.454 258.49L-126.456 250.997C-128.707 251.747 -133.959 252.496 -136.209 256.991L-136.96 259.239H-154.216L-154.966 256.242C-155.716 253.994 -156.466 251.747 -156.466 250.248C-157.217 250.248 -157.967 249.499 -158.717 248.75C-159.468 248 -161.718 245.753 -159.467 233.015L-158.717 230.768L-156.466 230.018C-148.964 227.771 -124.955 221.027 -118.203 224.024C-117.453 224.024 -115.202 224.774 -112.951 225.523C-101.697 227.771 -80.6896 230.768 -58.1816 250.248L-62.6833 255.493C-83.6907 237.511 -103.948 233.765 -114.452 232.266C-117.453 231.517 -119.703 231.517 -121.204 230.768C-124.205 230.018 -139.21 233.015 -152.715 236.762C-153.465 239.759 -153.465 242.006 -153.465 243.505C-151.965 244.254 -150.464 246.502 -148.964 251.747H-142.211C-136.959 244.254 -126.456 243.505 -125.706 243.505H-124.205L-111.451 259.239L-113.701 261.487C-118.953 265.233 -125.706 266.731 -131.708 266.731Z" fill="#4A8DC1"/>
<path d="M133.88 199.304L126.377 202.301C126.377 200.053 129.379 141.612 159.389 123.63C159.389 114.639 159.389 111.642 161.64 105.648L164.641 97.4062L168.392 104.899C168.392 104.899 171.393 110.143 175.895 113.89C193.151 110.893 194.652 115.388 195.402 116.887C196.152 118.385 199.153 120.633 202.154 122.131L211.157 122.881C213.408 122.881 219.41 122.131 221.661 122.131C229.914 121.382 235.166 124.379 238.917 131.872C238.917 131.872 238.917 132.621 239.668 132.621C244.169 140.113 241.918 145.358 239.668 148.355C236.667 152.85 231.415 155.098 225.413 154.349C223.912 154.349 220.161 154.349 219.41 155.098C216.409 157.346 199.153 170.083 178.146 167.086C176.645 172.331 175.145 182.071 175.145 186.566L167.642 188.065C167.642 180.572 171.393 163.34 171.393 162.591L172.144 158.844L175.895 159.594C196.902 164.089 214.909 149.853 214.909 149.104L215.659 148.355C217.91 146.856 223.912 146.856 225.413 146.856C229.164 146.856 231.415 146.107 232.915 143.859C234.416 142.361 235.166 140.113 232.915 135.618C232.165 134.869 232.165 134.119 232.165 133.37C229.914 128.875 227.663 127.376 222.411 127.376C219.41 127.376 214.159 128.125 211.157 128.125L199.903 127.376L199.153 126.627C197.653 125.878 191.651 122.131 189.4 117.636C187.149 116.887 181.147 117.636 175.895 118.385H174.394L172.894 117.636C169.893 116.137 167.642 113.89 166.142 112.391C166.142 114.639 166.142 117.636 166.142 122.131V128.125L163.891 128.875C136.131 143.11 133.88 198.554 133.88 199.304Z" fill="#4A8DC1"/>
<path d="M68.6103 408.341L61.8579 403.096C61.1076 400.848 61.1076 397.851 59.6071 395.604C54.3552 388.111 41.6006 380.619 33.3477 376.872L31.8472 376.123L37.099 372.377L38.5995 373.126C45.3519 376.123 53.605 379.869 60.3574 386.613C66.3595 392.607 69.3605 400.099 68.6103 408.341Z" fill="#4A8DC1"/>
<path d="M173.641 417.329L172.891 415.081C172.891 415.081 168.389 406.09 171.39 398.598C173.641 393.353 178.142 390.356 184.145 388.108L185.645 387.359L190.147 390.356C192.397 391.854 194.648 393.353 196.899 394.851C198.4 395.601 198.4 395.601 199.15 394.851C202.901 391.105 206.653 389.607 210.404 388.857C217.907 386.61 223.158 381.365 229.161 375.371C229.161 375.371 229.911 374.622 229.911 373.872C229.911 373.123 229.161 373.123 228.41 372.374C226.91 370.875 225.409 370.126 223.158 369.377C216.406 366.38 208.903 363.383 202.151 360.386L197.649 358.887C196.899 362.634 195.399 366.38 194.648 370.126C193.148 375.371 191.647 380.616 190.897 385.111L184.145 382.863C185.645 378.368 187.146 373.123 187.896 367.878C189.396 362.634 190.897 357.389 191.647 352.894L192.397 349.147L196.899 350.646C197.649 350.646 197.649 350.646 198.4 351.395L204.402 353.643C211.154 356.64 218.657 359.637 225.409 362.634C228.41 363.383 230.661 364.881 232.162 367.129C234.412 369.377 235.913 371.625 235.913 373.872C235.913 375.371 235.913 378.368 232.912 380.616C227.66 385.86 220.157 393.353 211.154 395.601C207.403 396.35 205.152 397.848 202.901 400.096C199.9 403.093 195.399 403.842 191.647 400.845C189.396 399.347 187.146 397.848 184.895 397.099C184.145 397.099 183.394 396.35 183.394 396.35C179.643 397.848 177.392 399.347 176.642 401.594C175.141 404.591 175.892 408.338 176.642 409.836H183.394C185.645 409.836 187.896 409.836 190.147 409.836L195.399 409.087C199.15 409.087 202.901 408.338 205.902 407.588C208.153 407.588 209.654 406.839 211.154 405.341C215.656 402.344 219.407 398.598 223.158 394.851C227.66 391.105 232.912 386.61 237.413 382.863C241.915 379.117 244.166 375.371 244.166 371.625C244.166 367.878 242.665 364.132 238.914 360.386C236.663 358.138 234.412 355.891 231.411 354.392L229.911 353.643C217.906 343.903 209.654 333.413 202.901 322.924C196.149 311.685 193.148 300.446 193.148 289.957C192.398 259.238 243.416 228.519 245.666 227.77L249.418 233.764C248.667 233.764 199.9 263.733 199.9 289.957C199.9 299.697 202.901 309.437 208.903 319.177C214.905 329.667 223.158 338.658 234.412 348.398L235.913 349.147C238.164 351.395 241.165 353.643 243.416 355.891C248.667 361.135 251.668 367.129 250.918 373.123C250.918 379.117 247.167 385.111 241.165 389.607C236.663 393.353 231.411 397.099 226.91 401.594C223.158 405.341 218.657 408.338 214.155 412.084C211.904 414.332 208.153 415.081 205.902 415.83C202.151 416.579 198.4 416.579 194.648 417.329L189.396 418.078C187.146 418.078 184.145 418.827 181.894 418.078L173.641 417.329Z" fill="#4A8DC1"/>
<path d="M367.963 303.446C367.213 303.446 367.213 303.446 366.462 303.446C363.461 303.446 359.71 301.947 356.709 296.703V295.953C356.709 294.455 354.458 283.216 356.709 276.473C357.459 273.476 354.458 266.733 352.207 263.736L351.457 262.986L347.706 251.748C346.205 251.748 343.955 250.999 341.704 249.5L343.204 283.965L351.457 285.464V292.956L336.452 290.709L334.201 226.273L341.704 239.76C344.705 245.754 349.957 245.754 350.707 245.754H353.708L354.458 248.751L358.21 261.488C360.46 264.485 366.463 273.476 363.461 280.968C361.961 284.715 362.711 292.207 363.461 295.953C364.962 298.201 366.463 298.95 367.213 298.95C371.714 299.699 379.217 293.706 382.968 289.959L388.97 212.038L390.471 211.289C395.723 207.542 401.725 198.551 405.476 192.557L390.471 193.307L389.721 191.059C386.72 182.817 381.468 176.823 374.715 174.576C364.962 171.579 353.708 173.826 340.203 181.319C328.949 187.313 318.446 195.554 308.692 203.047C307.192 204.545 304.941 206.044 303.44 207.542C291.436 217.283 277.181 227.772 262.176 233.017L259.925 226.273C274.18 221.778 287.685 211.289 298.939 202.298C300.439 200.799 302.69 199.301 304.191 197.802C314.694 189.56 325.198 181.319 337.202 175.325C352.207 167.832 365.712 164.835 376.966 168.582C385.219 170.829 391.971 177.572 395.723 187.313L418.981 185.814L415.98 191.808C415.23 192.557 405.476 209.79 396.473 217.283L389.721 289.959L388.97 290.709C388.22 292.207 377.717 303.446 367.963 303.446Z" fill="#4A8DC1"/>
<path d="M283.932 202.296L280.181 196.302C287.684 191.807 294.436 185.813 301.189 181.317C302.689 179.819 304.94 178.32 306.44 176.822C316.944 168.58 327.448 160.338 339.452 154.344C354.457 146.852 367.962 143.855 379.216 147.601C389.72 150.598 400.224 162.586 403.225 171.577L404.725 175.323L388.219 178.32L386.719 171.577L394.972 170.078C391.221 163.335 383.718 156.592 377.716 154.344C367.962 151.347 356.708 153.595 343.203 161.087C331.95 167.081 321.446 175.323 311.692 182.816C310.192 184.314 307.941 185.813 306.44 187.311C298.938 191.807 291.435 197.801 283.932 202.296Z" fill="#4A8DC1"/>
<path d="M111.382 230.021L105.38 225.526C127.138 197.054 193.161 189.562 195.412 189.562L199.164 188.812V206.794H191.661V197.054C178.156 199.302 127.888 208.293 111.382 230.021Z" fill="#4A8DC1"/>
<path d="M72.3626 458.536C71.6123 458.536 70.8621 458.536 69.3616 457.787C61.8589 454.79 56.6071 450.295 52.8558 444.301C51.3552 441.304 50.605 436.808 52.8558 432.313C48.3542 430.814 44.6029 427.817 41.6018 422.573C41.6018 422.573 40.8514 421.823 40.1012 421.074L39.351 420.325C28.097 411.334 15.3425 400.845 0.337204 394.101C-1.16333 393.352 -2.66391 392.603 -4.16444 391.854L-4.91475 391.104C-10.1666 387.358 -16.1687 383.612 -11.6671 371.624C-7.1655 358.887 -2.66389 347.648 1.83771 336.409C3.33824 333.412 1.83766 331.914 1.08739 331.165C-0.413132 330.416 -1.91364 329.666 -4.16444 328.917L-5.66495 328.168C-18.4195 323.672 -28.1729 315.431 -33.4247 303.443C-38.6766 291.455 -37.9263 277.219 -37.1761 264.482C-41.6777 268.228 -43.9285 275.721 -44.6787 278.718C-46.9295 286.959 -44.6788 295.201 -42.428 304.192C-40.1772 313.183 -37.9264 322.923 -40.1772 332.663C-41.6777 339.406 -46.1793 344.651 -49.9307 349.896C-51.4312 352.144 -52.9317 353.642 -54.4322 355.89C-58.1835 361.135 -58.1836 367.129 -58.9338 373.123C-58.9338 376.12 -58.9338 378.367 -59.684 381.364L-61.1847 390.355L-66.4365 382.863C-69.4376 379.116 -71.6883 373.872 -74.6893 366.379C-77.6904 357.388 -78.4408 349.896 -76.19 343.902C-75.4397 341.654 -74.6894 339.406 -73.1888 337.908C-72.4386 336.409 -71.6883 335.66 -71.6883 334.162C-68.6873 326.669 -71.6883 319.926 -74.6893 311.684C-76.1899 308.687 -76.9401 305.69 -78.4407 302.693C-83.6925 284.712 -77.6904 262.234 -63.4354 252.494C-55.9327 247.249 -47.6798 247.249 -39.4269 247.249C-31.9242 247.249 -25.1718 247.249 -20.6703 242.754C-1.16335 227.02 24.3456 221.026 52.1055 227.02C65.6102 230.017 79.8653 232.264 95.6209 234.512C101.623 235.261 106.875 234.512 111.376 232.264C115.128 228.518 141.387 204.542 196.907 200.796C199.158 188.059 210.411 182.814 211.162 182.814L215.663 180.566L217.164 200.796H229.918L236.671 203.793L255.427 201.545C256.178 201.545 256.178 201.545 256.928 201.545C259.179 200.796 262.18 200.047 265.181 201.545C268.932 203.044 269.682 208.288 269.682 210.536L262.93 212.784C262.93 211.285 262.18 208.288 261.43 207.539C260.679 207.539 259.179 207.539 258.428 208.288C257.678 208.288 256.928 208.288 256.178 208.288L235.17 211.285L228.418 207.539H211.162L209.661 191.805C206.66 194.053 204.409 198.548 203.659 203.793V206.79H200.658C142.888 209.787 116.628 236.011 116.628 236.76L115.878 237.509C109.876 240.506 103.123 242.005 94.8706 240.506C79.115 238.258 64.1097 236.011 50.6049 233.014C25.0959 227.769 1.08737 233.014 -16.1687 247.249C-22.9211 253.243 -31.174 253.243 -39.4269 253.243C-46.9295 253.243 -53.682 253.243 -58.9338 257.739C-70.1878 265.98 -76.1899 285.461 -70.938 300.446C-70.1878 303.443 -68.6873 305.69 -67.937 308.687C-64.1857 316.929 -60.4344 325.92 -64.936 336.409C-65.6863 337.908 -66.4364 339.406 -67.1867 340.905C-67.937 342.403 -68.6872 344.651 -69.4375 346.15C-70.938 350.645 -70.1878 356.639 -67.937 364.132C-67.1867 365.63 -66.4365 367.129 -66.4365 368.627C-65.6862 363.382 -64.936 357.388 -61.1847 352.144C-59.6841 349.896 -58.1836 347.648 -56.683 345.4C-52.9317 340.905 -49.9306 336.409 -48.4301 331.165C-46.1793 322.923 -48.4301 314.681 -50.6809 305.69C-52.9317 296.699 -55.1825 286.959 -52.9317 276.47C-51.4312 270.476 -46.1793 255.491 -34.1751 254.742H-29.6734L-30.4237 262.983C-31.174 275.721 -32.6746 288.458 -27.4227 298.947C-22.9211 308.687 -13.9179 316.18 -4.16444 319.926L-2.66393 320.675C-0.413132 321.425 2.58793 322.174 4.83872 324.422C8.59005 327.419 10.0907 332.663 7.83985 337.908C3.33826 349.147 -1.16335 360.385 -5.66495 372.373C-7.91574 378.367 -6.41521 379.866 -1.91362 383.612L-1.16342 384.361C-0.413155 385.11 0.337181 385.11 1.83771 385.86C17.5933 392.603 31.0981 403.842 43.1023 412.833L43.8525 413.582C44.6028 414.331 46.1034 415.08 46.8536 416.579C49.1044 421.074 52.8558 423.322 56.6071 424.071C58.1076 424.071 58.8578 424.82 59.6081 425.57C59.6081 425.57 59.6082 425.57 60.3584 425.57L63.3595 427.817L61.1086 431.564C61.1086 432.313 60.3584 432.313 60.3584 433.062C58.1076 435.31 58.1075 437.558 58.8578 439.056C61.1086 443.552 64.86 446.549 70.8621 448.796C73.8632 436.808 71.6123 427.817 64.86 420.325C42.352 394.851 15.3425 376.869 15.3425 376.869L11.5912 374.621L21.3445 366.379C24.3456 363.382 26.5964 360.385 29.5975 357.388C34.8494 350.645 40.1012 343.902 48.3541 340.156C53.606 337.908 57.3573 333.412 59.6081 327.419L61.1086 323.672L67.8611 326.669C70.1119 327.419 72.3626 328.168 73.8631 329.666C98.6219 340.905 124.131 345.4 149.64 343.902C150.39 343.902 151.141 343.902 151.891 343.902C160.894 343.153 163.895 343.902 166.896 352.893C168.397 356.639 169.147 360.385 169.147 364.881C169.147 374.621 169.147 384.361 168.397 394.851C168.397 399.346 167.646 404.591 166.146 409.086C163.145 421.074 151.891 430.814 139.136 432.313C135.385 433.062 131.634 433.811 127.132 435.31C125.631 436.059 123.381 436.059 121.13 435.31C118.879 433.811 118.129 431.564 118.129 430.814C116.628 426.319 111.376 422.573 106.875 423.322C103.874 424.071 100.873 425.57 97.8717 427.068C97.8717 427.068 97.1214 427.068 97.1214 427.817C97.8717 428.567 98.6219 428.567 98.6219 429.316L102.373 432.313C104.624 433.811 106.875 436.059 109.126 437.558C110.626 438.307 112.127 439.056 114.378 439.805C115.878 440.555 117.379 440.555 118.879 440.555C121.13 441.304 123.381 441.304 125.632 442.802C130.133 444.301 134.635 444.301 139.136 441.304C148.139 436.059 157.143 430.814 165.396 427.068C167.646 425.57 170.647 424.82 171.398 422.573L178.9 423.322C176.65 427.817 171.398 431.564 168.397 433.062C160.144 436.808 151.141 442.053 142.888 447.298C136.886 451.044 130.133 451.793 123.381 449.546C121.88 448.796 119.629 448.047 117.379 448.047C115.878 447.298 114.378 447.298 112.877 446.549C110.626 445.799 108.375 445.05 106.125 443.552C103.874 442.053 100.873 439.805 98.6219 438.307L94.8706 435.31C93.37 434.561 92.6198 433.811 91.1192 432.313C89.6187 430.814 88.8684 428.567 88.8684 427.068C88.8684 425.57 90.369 423.322 92.6198 422.573C93.37 421.823 94.1203 421.823 94.8706 421.074C98.6219 419.576 101.623 417.328 105.374 416.579C112.877 415.08 122.63 421.074 124.881 428.567C129.383 427.068 133.884 425.57 138.386 424.82C148.139 423.322 157.143 415.83 159.393 406.839C160.144 403.092 160.894 398.597 160.894 394.101C161.644 384.361 161.644 374.621 161.644 364.881C161.644 361.884 160.894 358.138 160.144 355.141C158.643 349.896 158.643 349.896 152.641 350.645C151.891 350.645 150.39 350.645 149.64 350.645C122.63 352.144 96.3711 347.648 70.1118 336.409C67.861 335.66 66.3605 334.911 64.1098 334.162C61.1087 340.156 56.607 344.651 51.3551 347.648C44.6028 351.394 40.1012 356.639 34.8493 363.382C31.8483 367.129 29.5975 370.126 25.8462 373.872L22.8452 376.119C31.0981 382.113 51.3551 397.098 70.1118 418.077C78.3647 427.068 80.6155 439.056 77.6144 453.292C77.6144 454.041 76.8642 457.038 73.8631 458.536C73.8631 458.536 73.1129 458.536 72.3626 458.536Z" fill="#4A8DC1"/>
<path d="M-28.9279 451.047H-37.9311H-38.6814C-40.9322 450.298 -41.6825 448.8 -42.4327 447.301C-42.4327 445.803 -43.183 444.304 -41.6824 442.057L-40.9321 441.307C-40.1818 439.809 -39.4316 438.31 -37.1808 436.812C-35.6803 435.313 -34.1798 433.815 -34.1798 431.567C-34.1798 430.818 -33.4295 430.069 -33.4295 428.57C-33.4295 427.821 -32.6793 427.072 -32.6793 426.322C-31.1787 418.83 -31.1787 412.836 -34.1798 406.842L-34.9301 404.594C-36.4306 402.346 -37.1808 400.099 -37.9311 397.851C-38.6814 395.603 -39.4316 394.105 -39.4316 391.857C-40.1819 392.606 -41.6825 392.606 -42.4327 393.356C-47.6846 394.854 -52.1861 397.102 -58.1882 396.353C-58.9385 397.102 -58.9385 397.851 -60.4391 400.099C-61.9396 403.096 -62.6898 406.093 -63.4401 409.09C-64.9406 412.836 -65.691 417.331 -68.692 421.078C-70.9428 424.824 -72.4433 427.821 -70.9427 431.567C-70.1925 433.066 -70.1925 436.063 -73.1936 438.31C-73.1936 439.809 -73.1936 441.307 -73.1936 442.057C-73.9438 444.304 -76.1947 445.053 -77.6952 445.803C-79.1957 446.552 -79.946 446.552 -81.4465 446.552L-83.6973 447.301H-86.6984H-87.4487C-88.1989 447.301 -88.9491 447.301 -89.6994 446.552C-92.7004 445.803 -93.4508 444.304 -94.201 443.555C-94.9513 442.806 -94.9512 440.558 -93.4507 438.31C-93.4507 437.561 -92.7005 437.561 -92.7005 436.812C-91.2 434.564 -90.4497 432.316 -88.1989 430.818C-85.1978 428.57 -83.6973 425.573 -82.947 421.078V418.83C-82.1968 413.585 -81.4465 407.591 -78.4454 402.346C-77.6951 400.848 -77.6952 400.099 -79.946 397.102C-80.6963 396.353 -81.4465 395.603 -81.4465 394.854C-85.9481 398.6 -94.201 402.346 -97.9523 403.096C-100.203 403.096 -102.454 404.594 -104.705 405.343H-105.455C-105.455 406.093 -104.705 406.842 -103.954 407.591C-103.204 408.34 -103.204 409.09 -102.454 409.839C-102.454 410.588 -101.704 410.588 -101.704 410.588C-100.203 409.839 -98.7026 409.839 -97.9523 409.839C-91.9502 410.588 -88.9492 414.334 -87.4487 421.078C-87.4487 422.576 -86.6984 425.573 -88.9492 427.821C-91.2 430.069 -94.201 429.319 -95.7015 428.57C-98.7026 427.821 -102.454 427.072 -105.455 427.072C-110.707 427.072 -113.708 425.573 -114.458 419.579C-115.208 417.331 -115.959 415.084 -117.459 412.836C-119.71 410.588 -121.211 408.34 -121.961 405.343C-124.962 400.099 -122.711 396.352 -121.211 394.854C-119.71 393.356 -115.959 390.359 -111.457 387.362C-109.957 385.863 -107.706 385.114 -106.956 384.365L-106.205 383.615C-102.454 380.618 -100.203 379.12 -100.203 377.621C-100.953 376.872 -100.953 375.374 -101.704 374.624C-103.954 369.38 -106.205 363.386 -109.957 358.89C-113.708 362.636 -115.959 368.63 -117.459 373.126C-118.21 376.123 -118.96 376.872 -119.71 378.371C-120.46 379.869 -121.961 382.117 -123.461 388.111C-123.461 388.86 -123.461 388.86 -123.461 390.359C-123.461 391.108 -123.461 392.606 -123.461 393.356C-124.212 400.099 -131.714 403.845 -139.217 403.845C-139.217 403.845 -139.217 403.845 -139.967 403.845C-144.469 403.845 -146.72 401.597 -148.22 400.099L-148.97 398.6C-148.97 397.851 -149.721 397.851 -149.721 397.851C-153.472 394.854 -154.222 391.108 -152.722 386.612C-149.721 379.869 -149.721 373.126 -148.97 365.633C-148.97 363.386 -148.22 361.138 -148.22 359.639C-148.22 358.141 -147.47 355.893 -147.47 354.395L-160.975 352.147L-158.724 347.652C-158.724 346.902 -153.472 339.41 -145.219 336.413C-144.469 328.92 -140.717 306.443 -124.212 292.957C-112.958 283.966 -100.203 280.969 -82.947 283.966V291.458C-97.9523 288.461 -110.707 291.458 -119.71 298.201C-136.966 311.688 -138.467 338.661 -138.467 338.661V341.658L-141.468 342.407C-144.469 343.156 -146.72 344.655 -148.97 346.153L-139.967 347.652L-140.717 351.398C-141.468 354.395 -141.468 357.392 -142.218 359.639C-142.218 361.887 -142.968 363.386 -142.968 365.633C-143.719 373.126 -144.469 380.618 -147.47 388.86C-148.22 390.359 -147.47 391.108 -146.72 391.857C-145.969 392.606 -145.219 393.356 -144.469 394.105L-143.719 394.854C-142.218 396.352 -142.218 396.353 -140.717 396.353C-136.966 396.353 -132.465 394.854 -131.714 392.606C-131.714 391.857 -131.714 391.857 -131.714 391.108C-131.714 389.609 -131.714 388.111 -130.964 386.612C-128.713 379.869 -127.213 377.621 -126.462 375.374C-125.712 373.875 -125.712 373.126 -124.962 370.878C-122.711 364.135 -119.71 355.893 -112.207 350.649L-109.206 349.15L-106.956 351.398C-101.704 357.392 -98.7026 364.884 -95.7015 371.627C-94.9513 373.126 -94.201 374.624 -93.4507 376.123C-91.9502 380.618 -96.4519 384.365 -102.454 389.609L-103.204 390.359C-103.954 391.108 -106.205 392.606 -107.706 394.105C-110.707 396.353 -115.208 399.35 -116.709 400.848C-116.709 400.848 -117.459 401.597 -116.709 403.845C-115.959 405.343 -114.458 407.591 -112.958 409.839L-112.207 410.588C-112.207 409.839 -112.958 409.839 -112.958 409.09C-113.708 407.591 -113.708 405.343 -112.958 403.845C-112.207 402.346 -110.707 400.848 -109.206 400.099H-108.456C-106.205 398.6 -103.204 397.851 -99.4529 397.102C-95.7015 396.353 -86.6983 391.857 -84.4475 388.86C-83.6973 388.111 -82.947 387.362 -82.947 387.362L-78.4454 384.365L-77.6952 389.609C-77.6952 391.108 -76.1946 392.606 -74.6941 394.854C-72.4433 397.851 -69.4423 402.346 -72.4434 408.34C-74.6942 412.087 -75.4444 416.582 -76.1947 421.078C-76.1947 421.078 -76.1946 420.328 -75.4444 420.328C-73.1936 417.331 -72.4433 413.585 -70.9427 409.839C-70.1925 406.842 -68.6919 403.845 -67.1914 400.099C-64.9406 395.603 -62.6899 392.606 -60.4391 391.857C-58.9385 391.857 -58.1883 391.857 -57.438 391.857C-52.9365 392.606 -49.185 391.108 -44.6834 389.609C-43.1829 388.86 -40.9321 388.111 -39.4316 388.111L-34.1798 386.612L-33.4295 390.359C-33.4295 391.108 -32.6793 392.606 -32.6793 393.356C-31.929 395.603 -31.929 397.102 -31.1788 399.349C-30.4285 401.597 -29.6781 403.096 -28.1776 405.343L-27.4274 407.591C-24.4264 412.836 -23.6761 418.081 -23.6761 424.075C-22.9258 422.576 -22.1755 421.078 -21.4253 420.328C-20.675 418.83 -20.675 418.081 -21.4253 417.331C-25.1766 412.087 -25.9269 406.093 -23.6761 399.349C-22.1756 395.603 -22.1756 394.854 -19.9248 392.606L-15.4231 388.111L-13.1723 392.606C-9.42097 399.349 -7.17021 400.848 -0.417816 401.597C4.08377 402.346 4.83401 405.343 4.83401 406.842C4.83401 407.591 5.58434 408.34 5.58434 409.09C6.33459 412.087 7.08482 414.334 4.83401 418.83C3.33348 422.576 3.33348 423.325 4.83401 424.824L5.58434 421.827C5.58434 421.078 9.33566 412.087 9.33566 411.337L14.5875 414.334C14.5875 415.833 13.8372 418.83 13.087 419.579C16.088 420.328 16.8383 423.325 18.3388 426.322C19.0891 427.821 19.0891 429.319 19.0891 430.818L20.5896 437.561H16.088C10.8362 437.561 6.33458 436.063 3.33351 433.066C-4.16914 427.072 -4.91939 424.824 -1.91832 415.833C-1.16806 412.836 -1.16806 412.836 -1.91832 410.588C-1.91832 409.839 -2.66864 409.09 -2.66864 408.34C-9.42102 407.591 -13.9226 405.343 -17.674 400.099V400.848C-19.1745 406.093 -18.4242 409.839 -16.1734 412.836C-13.9226 416.582 -13.9226 420.328 -16.1734 424.075C-18.4242 427.072 -19.9248 429.319 -19.9248 432.316C-19.9248 433.815 -19.9248 436.063 -19.9248 437.561C-19.9248 439.059 -19.1744 442.056 -22.1755 444.304C-21.4252 445.803 -21.4252 448.05 -22.1755 449.549C-23.676 451.797 -25.9268 452.546 -28.1776 453.295L-28.9279 451.047ZM-33.4295 443.555H-30.4284H-29.6781H-28.9279V442.806C-29.6782 440.558 -28.9279 437.561 -26.6771 436.063C-26.6771 436.063 -26.6771 436.063 -26.6771 435.313C-26.6771 434.564 -26.6771 433.815 -26.6771 433.815C-27.4274 437.561 -29.6782 439.809 -32.6793 442.806L-33.4295 443.555ZM-86.6984 441.307H-85.1979H-84.4475C-83.6973 441.307 -82.947 441.307 -82.1967 440.558C-82.947 438.31 -81.4465 436.063 -79.946 434.564C-79.946 433.815 -80.6962 433.066 -80.6962 432.316C-82.1967 434.564 -83.6973 436.063 -85.1979 437.561C-85.9481 438.31 -86.6984 439.809 -87.4487 441.307C-87.4487 441.307 -87.4486 441.307 -86.6984 441.307ZM7.08484 423.325C7.8351 423.325 7.83508 424.075 8.58534 424.075C9.33562 424.824 10.8362 425.573 12.3367 426.322C12.3367 425.573 12.3367 425.573 11.5865 424.824C10.8362 423.325 10.8362 422.576 10.8362 422.576C10.8362 422.576 10.0859 422.576 9.33566 422.576L7.08484 423.325ZM-107.706 421.078C-107.706 421.078 -106.956 421.078 -105.455 421.078C-101.704 421.078 -97.9524 421.827 -94.9513 422.576C-95.7016 418.83 -97.2021 418.081 -98.7027 418.081C-98.7027 418.081 -98.7026 418.081 -99.4529 418.081C-101.704 418.83 -106.205 419.579 -109.206 414.334C-109.206 413.585 -109.957 413.585 -110.707 412.836C-110.707 412.836 -110.707 412.836 -110.707 412.087C-109.206 414.334 -108.456 417.331 -107.706 419.579C-108.456 420.328 -108.456 421.078 -107.706 421.078Z" fill="#4A8DC1"/>
</g>
</svg>
